<svg width="248" height="282" viewBox="0 0 248 282" fill="none" xmlns="http://www.w3.org/2000/svg">
<path d="M6.42537 5.43842C23.1065 14.391 69.7801 36.5412 123.631 36.6152V36.6154L123.765 36.6154H123.767L123.901 36.6154V36.6152C177.752 36.5412 224.425 14.391 241.106 5.43845C242.771 4.5448 244.892 5.7692 244.958 7.63583C247.475 78.8251 241.964 128.9 223.386 169.329C204.966 209.415 173.58 240.267 123.766 272.8C73.952 240.267 42.5661 209.415 24.1456 169.329C5.56746 128.9 0.0567932 78.825 2.5739 7.6358C2.63991 5.76913 4.76022 4.54474 6.42537 5.43842Z" fill="#DFE7EC" stroke="#022030" stroke-width="4"/>
<circle cx="123.5" cy="216" r="66" fill="#022030"/>
<line x1="155.025" y1="75" x2="194.865" y2="114.84" stroke="#B61616" stroke-width="7.2973" stroke-linecap="round"/>
<line x1="3.64865" y1="-3.64865" x2="59.991" y2="-3.64865" transform="matrix(-0.707107 0.707107 0.707107 0.707107 199.729 75)" stroke="#B61616" stroke-width="7.2973" stroke-linecap="round"/>
<line x1="51.16" y1="75" x2="91" y2="114.84" stroke="#B61616" stroke-width="7.2973" stroke-linecap="round"/>
<line x1="3.64865" y1="-3.64865" x2="59.991" y2="-3.64865" transform="matrix(-0.707107 0.707107 0.707107 0.707107 95.8647 75)" stroke="#B61616" stroke-width="7.2973" stroke-linecap="round"/>
<path d="M114.01 176.184C114.01 173.486 116.197 171.299 118.894 171.299H127.38C130.077 171.299 132.264 173.486 132.264 176.184V201.035C132.264 206.076 128.178 210.162 123.137 210.162V210.162C118.096 210.162 114.01 206.076 114.01 201.035V176.184Z" fill="#DFE7EC" stroke="#022030" stroke-width="2.73"/>
<path d="M141.313 207.756C142.002 205.91 142.451 203.968 142.65 201.989C142.78 200.695 141.713 199.637 140.412 199.637H139.772C138.471 199.637 137.434 200.697 137.253 201.985C137.086 203.183 136.789 204.358 136.37 205.483C135.678 207.336 134.665 209.02 133.387 210.439C132.109 211.857 130.592 212.982 128.923 213.75C127.254 214.518 124.782 214.913 122.975 214.913C121.168 214.913 119.379 214.518 117.71 213.75C116.04 212.982 114.524 211.857 113.246 210.439C111.968 209.02 110.955 207.336 110.263 205.483C109.844 204.358 109.547 203.183 109.38 201.985C109.199 200.697 108.162 199.637 106.861 199.637H106.221C104.92 199.637 103.853 200.695 103.983 201.989C104.182 203.968 104.631 205.91 105.32 207.756C106.28 210.33 107.688 212.669 109.462 214.639C110.888 216.221 112.527 217.541 114.319 218.552C115.12 219.003 115.662 219.828 115.662 220.747V240.28C115.662 241.58 116.717 242.635 118.017 242.635H127.933C129.234 242.635 130.288 241.58 130.288 240.28V220.747C130.288 219.828 130.827 218.999 131.646 218.58C133.627 217.565 135.732 216.236 137.171 214.639C138.945 212.669 140.353 210.33 141.313 207.756Z" fill="#DFE7EC" stroke="#022030" stroke-width="2.73"/>
<path d="M106.355 257.268C105.055 257.268 103.981 256.206 104.194 254.923C104.421 253.565 104.844 252.232 105.457 250.959C106.418 248.958 107.828 247.141 109.605 245.61C111.382 244.079 113.492 242.864 115.813 242.036C118.135 241.207 120.624 240.781 123.137 240.781C125.65 240.781 128.138 241.207 130.46 242.036C132.782 242.864 134.892 244.079 136.669 245.61C138.446 247.141 139.855 248.958 140.817 250.959C141.429 252.232 141.853 253.565 142.079 254.923C142.293 256.206 141.219 257.268 139.918 257.268L135.06 257.268C133.76 257.268 132.739 256.187 132.321 254.955C132.224 254.67 132.109 254.389 131.977 254.113C131.496 253.113 130.791 252.204 129.903 251.439C129.014 250.673 127.959 250.066 126.798 249.652C125.638 249.238 124.393 249.024 123.137 249.024C121.88 249.024 120.636 249.238 119.475 249.652C118.314 250.066 117.259 250.673 116.371 251.439C115.482 252.204 114.778 253.113 114.297 254.113C114.164 254.389 114.05 254.67 113.953 254.955C113.535 256.187 112.514 257.268 111.213 257.268L106.355 257.268Z" fill="#DFE7EC" stroke="#022030" stroke-width="2.73"/>
</svg>
